<svg width="100" height="100" viewBox="0 0 100 100" xmlns="http://www.w3.org/2000/svg">
  <!-- Central hexagon -->
  <path d="M50 20 L65 28 L65 42 L50 50 L35 42 L35 28 Z" fill="#000000" stroke="#000000" stroke-width="1"/>
  
  <!-- Top hexagon -->
  <path d="M50 5 L65 13 L65 27 L50 35 L35 27 L35 13 Z" fill="#000000" stroke="#000000" stroke-width="1"/>
  
  <!-- Top-right hexagon -->
  <path d="M80 28 L95 36 L95 50 L80 58 L65 50 L65 36 Z" fill="#000000" stroke="#000000" stroke-width="1"/>
  
  <!-- Bottom-right hexagon -->
  <path d="M80 58 L95 66 L95 80 L80 88 L65 80 L65 66 Z" fill="#000000" stroke="#000000" stroke-width="1"/>
  
  <!-- Bottom hexagon -->
  <path d="M50 65 L65 73 L65 87 L50 95 L35 87 L35 73 Z" fill="#000000" stroke="#000000" stroke-width="1"/>
  
  <!-- Bottom-left hexagon -->
  <path d="M20 58 L35 66 L35 80 L20 88 L5 80 L5 66 Z" fill="#000000" stroke="#000000" stroke-width="1"/>
  
  <!-- Top-left hexagon -->
  <path d="M20 28 L35 36 L35 50 L20 58 L5 50 L5 36 Z" fill="#000000" stroke="#000000" stroke-width="1"/>
  
  <!-- Connection lines -->
  <line x1="50" y1="20" x2="50" y2="35" stroke="#000000" stroke-width="2"/>
  <line x1="65" y1="28" x2="80" y2="36" stroke="#000000" stroke-width="2"/>
  <line x1="65" y1="42" x2="80" y2="50" stroke="#000000" stroke-width="2"/>
  <line x1="50" y1="50" x2="50" y2="65" stroke="#000000" stroke-width="2"/>
  <line x1="35" y1="42" x2="20" y2="50" stroke="#000000" stroke-width="2"/>
  <line x1="35" y1="28" x2="20" y2="36" stroke="#000000" stroke-width="2"/>
</svg>

